<?xml version="1.0" standalone="no"?>
<!DOCTYPE svg PUBLIC "-//W3C//DTD SVG 20010904//EN"
 "http://www.w3.org/TR/2001/REC-SVG-20010904/DTD/svg10.dtd">
<svg version="1.0" xmlns="http://www.w3.org/2000/svg"
 width="1006.000000pt" height="1006.000000pt" viewBox="0 0 1006.000000 1006.000000"
 preserveAspectRatio="xMidYMid meet">
<metadata>
Created by potrace 1.14, written by Peter Selinger 2001-2017
</metadata>
<g transform="translate(0.000000,1006.000000) scale(0.100000,-0.100000)"
fill="#000000" stroke="none">
<path d="M6517 9894 c-1 -1 -47 -5 -102 -8 -55 -4 -116 -8 -135 -11 -19 -2
-55 -7 -80 -10 -88 -12 -116 -17 -235 -41 -307 -62 -640 -181 -960 -341 -171
-86 -480 -271 -497 -297 -4 -6 -52 -11 -115 -12 -115 -2 -364 -14 -392 -19 -9
-1 -46 -6 -83 -9 -37 -4 -80 -9 -95 -12 -15 -3 -55 -9 -88 -15 -173 -29 -410
-96 -572 -160 -417 -166 -766 -448 -1021 -826 -45 -67 -127 -215 -168 -304
-23 -50 -31 -58 -87 -84 -143 -68 -314 -206 -395 -320 -68 -96 -133 -248 -147
-345 -34 -237 7 -496 116 -735 l31 -70 -28 -19 c-16 -11 -72 -64 -125 -117
-306 -309 -521 -863 -575 -1484 -3 -38 -8 -88 -10 -110 -5 -49 -5 -447 1 -495
2 -19 6 -73 10 -119 3 -47 8 -87 9 -90 2 -3 7 -37 11 -74 3 -37 8 -78 11 -90
6 -33 24 -133 30 -164 10 -62 57 -244 86 -338 146 -473 378 -844 664 -1061
100 -76 277 -155 380 -169 46 -7 228 -7 264 -1 14 3 45 7 70 10 25 3 61 10 80
16 19 5 38 10 42 10 7 0 46 -32 164 -137 34 -30 91 -77 125 -104 35 -28 80
-65 99 -81 19 -17 60 -49 90 -72 30 -22 57 -43 60 -47 10 -10 166 -126 305
-225 233 -167 546 -367 740 -474 28 -15 84 -47 125 -70 246 -136 627 -306 895
-398 105 -36 370 -114 429 -127 30 -6 126 -24 161 -30 17 -2 39 -7 50 -9 11
-2 45 -7 75 -11 30 -4 64 -9 75 -11 88 -17 399 -23 545 -11 121 10 136 13 340
53 14 3 68 18 120 33 460 138 858 430 1180 866 59 79 94 131 186 275 57 89
184 339 252 495 150 346 288 783 382 1215 20 89 38 151 48 160 82 74 198 268
272 456 32 80 95 289 105 347 3 18 11 50 16 72 6 22 13 56 15 75 2 19 6 46 9
60 10 47 13 65 19 115 4 28 9 68 12 90 20 153 28 335 28 604 0 247 0 254 -21
271 -17 13 -37 16 -85 14 -136 -6 -288 -8 -292 -3 -2 2 -7 108 -10 234 -4 127
-8 259 -11 295 -9 138 -23 307 -31 359 -2 18 -7 59 -9 90 -5 53 -13 113 -21
156 -2 11 -7 40 -10 65 -11 92 -20 143 -44 255 -36 167 -43 140 72 257 321
323 443 723 362 1193 -25 148 -117 374 -211 522 -213 335 -554 611 -987 802
-248 108 -588 212 -811 246 -22 3 -51 7 -65 10 -81 13 -196 26 -270 31 -85 6
-369 12 -373 8z"/>
</g>
</svg>
